/* XPM */
static char *_6wall[] = {
/* columns rows colors chars-per-pixel */
"16 16 2 1 ",
"  c #162137",
". c #AE531C",
/* pixels */
".    . .. .    .",
"                ",
".              .",
" ....  ..  .... ",
". .....  ..... .",
" . ...    ... . ",
". .. ..  .. .. .",
" ..   ....   .. ",
" ..   ....   .. ",
". .. ..  .. .. .",
" . ...    ... . ",
". .....  ..... .",
" ....  ..  .... ",
".              .",
"                ",
".    . .. .    ."
};
