/* XPM */
static char *collectible[] = {
/* columns rows colors chars-per-pixel */
"64 64 7 1 ",
"  c #5F6007",
". c #15854E",
"X c #119253",
"o c #C7C820",
"O c #D69BA3",
"+ c #D5D69B",
"@ c #A59BD6",
/* pixels */
"..................XXXXXXXXXXX@@OO@@XXXXXXXXXXX..................",
"..................XXXXXXXXXX@@@OO@@@XXXXXXXXXX..................",
"..................XXXXXXXXXX@@@OO@@@XXXXXXXXXX..................",
".................XXXXXXXXXXX@@@OO@@@XXXXXXXXXXX.................",
".................XXXXXXXXXXX@@@OO@@@XXXXXXXXXXX.................",
".................XXXXXXXXXXX@@@OO@@@XXXXXXXXXXX.................",
".................XXXXXXXXXXX@@@OO@@@XXXXXXXXXXX.................",
"................XXXXXXXXXXXX@@@OO@@@XXXXXXXXXXXX................",
"................XXXXXXXXXXXX@@@OO@@@XXXXXXXXXXXX................",
"...............XXXXXXXXXXXX@@@@OO@@@@XXXXXXXXXXXX.      ........",
"..............XXXXXXXXXXXXX@@@@OO@@@@XXXXXXXXXXXX        .......",
"....   ......XXXXXXXXXXXXXX@@@OOOO@@@XXXXXXXXXXXX        .......",
"....    .....XXXXXXXXXXXXXX@@@OOOO@@@XXXXXXXXXXX          ......",
"....     ...XXXXXXXXXXXXXXX@@@OOOO@@@XXXXXXXXXX     oo    ......",
"....      .XXXXXXXXXXXXXXX@@@@OOOO@@@@XXXXXXXXX     ooo   ......",
"....       XXXXXXXXXXXXXXX@@@@OOOO@@@@XXXXXXXXX    oooo   ......",
"XXXX        XXXXXXXXXXXXX@@@@@OOOO@@@@@XXXXXXX    ooooo   XXXXXX",
"XXXX         XXXXXXXXXXXX@@@@@OOOO@@@@@XXXXXXX    ooooo   XXXXXX",
"XXXXX         XXXXXXXXXXX@@@@@OOOO@@@@@XXXXXX    oooooo   XXXXXX",
"XXXXX         XXXXXXXXXXX@@@@OOOOOO@@@@XXXXX     oooooo   XXXXXX",
"XXXXX    o     XXXXXXXXXX@@@@OOOOOO@@@@XXXXX    oo+++oo   XXXXXX",
"XXXXX    oo     XXXXX@@@@@@@@OOOOOO@@@@@@@@    oo+ooo+o   XXXXXX",
"XXXXXX    oo      XX@@@@@@@@@OOOOOO@@@@@@@@    o+ooooo+   XXXXXX",
"XXXXXX    ooo       @@@@@@@@OOOOOOOO@@@@@@    oo+ooooo+   XXXXXX",
"XXXXXX    oooo+++     @@@@@OOOOOOOOOO@@@@     oo+ooooo+   XXXXXX",
"@@@@@@    ooo+o  +     @@OOOOOOOOOOOOOO@     oooo+ooo+o   @@@@@@",
"@@@@@@    oo+ooooo+     OOOOOOOOOOOOO        ooooo+++oo   @@@@@@",
"@@@@@@     o+ooooo+       OOOOOOOOO        oooooooooooo   @@@@@@",
"OOOOOO     o+ooooo+o        OOOOO         ooooooooooooo   OOOOOO",
"OOOOOOOO   oo+ooo+ooo                   oooo+++oooooooo   OOOOOO",
"OOOOOOOO   ooo+++ooooooo              ooooo+ooo+ooooooo   OOOOOO",
"OOOOOOOO    ooo+++oooooooo         ooooooo+ooooo+oooooo   OOOOOO",
"OOOOOOOO    oo+ooo+ooooooooooooooooooooooo+ooooo+oooooo   OOOOOO",
"OOOOOOOOO   o+ooooo+oooooooooooooooooooooo+ooooo+oooooo   OOOOOO",
"OOOOOOOOO    +ooooo+ooooooooooooooooooooooo+ooo+ooooooo   OOOOOO",
"OOOOOO@@@    +ooooo+oooooooooooooooo+++ooooo+++oooooooo   OOOOOO",
"@@@@@@@@@@   o+ooo+ooooo+++oooooooo+ooo+ooooooooooooooo   @@@@@@",
"@@@@@@@@@@   oo+++ooooo+ooo+oooooo+ooooo+ooooooooooooo    @@@@@@",
"@@@@@@@@@@    oooooooo+ooooo+ooooo+ooooo+ooooooooooooo    @@@@@@",
"XXXXXX@@X@     ooooooo+ooooo+ooooo+ooooo+ooooooooooooo    XXXXXX",
"XXXXXXXXXXX     oooooo+ooooo+oooooo+ooo+ooooooooooooo    XXXXXXX",
"XXXXXXXXXXXX     oooooo+ooo+oooooooo+++ooooooooooo       XXXXXXX",
"XXXXXXXXXXXXX      ooooo+++ooooooooooooooooooooo        XXXXXXXX",
"XXXXXXXXXXXXX        oo      oooooooooooooooooo        XXXXXXXXX",
"XXXXXXXXXXXXXXX                 oooooooooooo         XXXXXXXXXXX",
"XXXXXXXXXXXXXXXX                    oooooo         XXXXXXXXXXXXX",
"XXXXXXXXXXXXXXXXXX                               XXXXXXXXXXXXXXX",
"XXXXXXXXXXXXXXXXXXXXXX                         XXXXXXXXXXXXXXXXX",
"........XXXXXXXXXXXXXXXXXX@@@@OOOO          XXXXXXXXXXXX........",
"...........XXXXXXXXXXXXXXX@@@@OOOO@@@@XXXXXXXXXXXXXXX...........",
"............XXXXXXXXXXXXXXX@@@OOOO@@@XXXXXXXXXXXXXXX............",
".............XXXXXXXXXXXXXX@@@OOOO@@@XXXXXXXXXXXXXX.............",
".............XXXXXXXXXXXXXX@@@OOOO@@@XXXXXXXXXXXXXX.............",
"..............XXXXXXXXXXXXX@@@@OO@@@@XXXXXXXXXXXXX..............",
"...............XXXXXXXXXXXX@@@@OO@@@@XXXXXXXXXXXX...............",
"................XXXXXXXXXXXX@@@OO@@@XXXXXXXXXXXX................",
"................XXXXXXXXXXXX@@@OO@@@XXXXXXXXXXXX................",
".................XXXXXXXXXXX@@@OO@@@XXXXXXXXXXX.................",
".................XXXXXXXXXXX@@@OO@@@XXXXXXXXXXX.................",
".................XXXXXXXXXXX@@@OO@@@XXXXXXXXXXX.................",
".................XXXXXXXXXXX@@@OO@@@XXXXXXXXXXX.................",
"..................XXXXXXXXXX@@@OO@@@XXXXXXXXXX..................",
"..................XXXXXXXXXX@@@OO@@@XXXXXXXXXX..................",
"..................XXXXXXXXXXX@@OO@@XXXXXXXXXXX.................."
};
