/* XPM */
static char *collectible[] = {
/* columns rows colors chars-per-pixel */
"64 64 4 1 ",
"  c #5F6007",
". c #C7C820",
"X c #D5D69B",
"o c None",
/* pixels */
"oooooooooooooooooooooooooooooooooooooooooooooooooooooooooooooooo",
"oooooooooooooooooooooooooooooooooooooooooooooooooooooooooooooooo",
"oooooooooooooooooooooooooooooooooooooooooooooooooooooooooooooooo",
"oooooooooooooooooooooooooooooooooooooooooooooooooooooooooooooooo",
"oooooooooooooooooooooooooooooooooooooooooooooooooooooooooooooooo",
"oooooooooooooooooooooooooooooooooooooooooooooooooooooooooooooooo",
"oooooooooooooooooooooooooooooooooooooooooooooooooooooooooooooooo",
"oooooooooooooooooooooooooooooooooooooooooooooooooooooooooooooooo",
"oooooooooooooooooooooooooooooooooooooooooooooooooooooooooooooooo",
"oooooooooooooooooooooooooooooooooooooooooooooooooo      oooooooo",
"ooooooooooooooooooooooooooooooooooooooooooooooooo        ooooooo",
"oooo   oooooooooooooooooooooooooooooooooooooooooo        ooooooo",
"oooo    oooooooooooooooooooooooooooooooooooooooo          oooooo",
"oooo     oooooooooooooooooooooooooooooooooooooo     ..    oooooo",
"oooo      ooooooooooooooooooooooooooooooooooooo     ...   oooooo",
"oooo       oooooooooooooooooooooooooooooooooooo    ....   oooooo",
"oooo        oooooooooooooooooooooooooooooooooo    .....   oooooo",
"oooo         ooooooooooooooooooooooooooooooooo    .....   oooooo",
"ooooo         ooooooooooooooooooooooooooooooo    ......   oooooo",
"ooooo         oooooooooooooooooooooooooooooo     ......   oooooo",
"ooooo    .     ooooooooooooooooooooooooooooo    ..XXX..   oooooo",
"ooooo    ..     ooooooooooooooooooooooooooo    ..X...X.   oooooo",
"oooooo    ..      ooooooooooooooooooooooooo    .X.....X   oooooo",
"oooooo    ...       oooooooooooooooooooooo    ..X.....X   oooooo",
"oooooo    ....XXX     ooooooooooooooooooo     ..X.....X   oooooo",
"oooooo    ...X.  X     ooooooooooooooooo     ....X...X.   oooooo",
"oooooo    ..X.....X     ooooooooooooo        .....XXX..   oooooo",
"oooooo     .X.....X       ooooooooo        ............   oooooo",
"oooooo     .X.....X.        ooooo         .............   oooooo",
"oooooooo   ..X...X...                   ....XXX........   oooooo",
"oooooooo   ...XXX.......              .....X...X.......   oooooo",
"oooooooo    ...XXX........         .......X.....X......   oooooo",
"oooooooo    ..X...X.......................X.....X......   oooooo",
"ooooooooo   .X.....X......................X.....X......   oooooo",
"ooooooooo    X.....X.......................X...X.......   oooooo",
"ooooooooo    X.....X................XXX.....XXX........   oooooo",
"oooooooooo   .X...X.....XXX........X...X...............   oooooo",
"oooooooooo   ..XXX.....X...X......X.....X.............    oooooo",
"oooooooooo    ........X.....X.....X.....X.............    oooooo",
"oooooooooo     .......X.....X.....X.....X.............    oooooo",
"ooooooooooo     ......X.....X......X...X.............    ooooooo",
"oooooooooooo     ......X...X........XXX...........       ooooooo",
"ooooooooooooo      .....XXX.....................        oooooooo",
"ooooooooooooo        ..      ..................        ooooooooo",
"ooooooooooooooo                 ............         ooooooooooo",
"oooooooooooooooo                    ......         ooooooooooooo",
"oooooooooooooooooo                               ooooooooooooooo",
"oooooooooooooooooooooo                         ooooooooooooooooo",
"oooooooooooooooooooooooooooooooooo          oooooooooooooooooooo",
"oooooooooooooooooooooooooooooooooooooooooooooooooooooooooooooooo",
"oooooooooooooooooooooooooooooooooooooooooooooooooooooooooooooooo",
"oooooooooooooooooooooooooooooooooooooooooooooooooooooooooooooooo",
"oooooooooooooooooooooooooooooooooooooooooooooooooooooooooooooooo",
"oooooooooooooooooooooooooooooooooooooooooooooooooooooooooooooooo",
"oooooooooooooooooooooooooooooooooooooooooooooooooooooooooooooooo",
"oooooooooooooooooooooooooooooooooooooooooooooooooooooooooooooooo",
"oooooooooooooooooooooooooooooooooooooooooooooooooooooooooooooooo",
"oooooooooooooooooooooooooooooooooooooooooooooooooooooooooooooooo",
"oooooooooooooooooooooooooooooooooooooooooooooooooooooooooooooooo",
"oooooooooooooooooooooooooooooooooooooooooooooooooooooooooooooooo",
"oooooooooooooooooooooooooooooooooooooooooooooooooooooooooooooooo",
"oooooooooooooooooooooooooooooooooooooooooooooooooooooooooooooooo",
"oooooooooooooooooooooooooooooooooooooooooooooooooooooooooooooooo",
"oooooooooooooooooooooooooooooooooooooooooooooooooooooooooooooooo"
};
