/* XPM */
static char *empty[] = {
/* columns rows colors chars-per-pixel */
"64 64 4 1 ",
"  c #15854E",
". c #119253",
"X c #D69BA3",
"o c #A59BD6",
/* pixels */
"                  ...........ooXXoo...........                  ",
"                  ..........oooXXooo..........                  ",
"                  ..........oooXXooo..........                  ",
"                 ...........oooXXooo...........                 ",
"                 ...........oooXXooo...........                 ",
"                 ...........oooXXooo...........                 ",
"                 ...........oooXXooo...........                 ",
"                ............oooXXooo............                ",
"                ............oooXXooo............                ",
"               ............ooooXXoooo............               ",
"              .............ooooXXoooo.............              ",
"             ..............oooXXXXooo..............             ",
"             ..............oooXXXXooo..............             ",
"            ...............oooXXXXooo...............            ",
"           ...............ooooXXXXoooo...............           ",
"        ..................ooooXXXXoooo..................        ",
".........................oooooXXXXooooo.........................",
".........................oooooXXXXooooo.........................",
".........................oooooXXXXooooo.........................",
".........................ooooXXXXXXoooo.........................",
".........................ooooXXXXXXoooo.........................",
".....................ooooooooXXXXXXoooooooo.....................",
"....................oooooooooXXXXXXooooooooo....................",
"..................ooooooooooXXXXXXXXoooooooooo..................",
"......oo.ooooooooooooooooooXXXXXXXXXXoooooooooooooooooo.oo......",
"ooooooooooooooooooooooXooXXXXXXXXXXXXXXooXoooooooooooooooooooooo",
"oooooooooooooooooooooooXXXXXXXXXXXXXXXXXXooooooooooooooooooooooo",
"ooooooooooooooooooooooXXXXXXXXXXXXXXXXXXXXoooooooooooooooooooooo",
"XXXXXXooooooooooXXXXXXXXXXXXXXXXXXXXXXXXXXXXXXXXooooooooooXXXXXX",
"XXXXXXXXXXXXXXXXXXXXXXXXXXXXXXXXXXXXXXXXXXXXXXXXXXXXXXXXXXXXXXXX",
"XXXXXXXXXXXXXXXXXXXXXXXXXXXXXXXXXXXXXXXXXXXXXXXXXXXXXXXXXXXXXXXX",
"XXXXXXXXXXXXXXXXXXXXXXXXXXXXXXXXXXXXXXXXXXXXXXXXXXXXXXXXXXXXXXXX",
"XXXXXXXXXXXXXXXXXXXXXXXXXXXXXXXXXXXXXXXXXXXXXXXXXXXXXXXXXXXXXXXX",
"XXXXXXXXXXXXXXXXXXXXXXXXXXXXXXXXXXXXXXXXXXXXXXXXXXXXXXXXXXXXXXXX",
"XXXXXXXXXXXXXXXXXXXXXXXXXXXXXXXXXXXXXXXXXXXXXXXXXXXXXXXXXXXXXXXX",
"XXXXXXooooooooooXXXXXXXXXXXXXXXXXXXXXXXXXXXXXXXXooooooooooXXXXXX",
"ooooooooooooooooooooooXXXXXXXXXXXXXXXXXXXXoooooooooooooooooooooo",
"oooooooooooooooooooooooXXXXXXXXXXXXXXXXXXooooooooooooooooooooooo",
"ooooooooooooooooooooooXooXXXXXXXXXXXXXXooXoooooooooooooooooooooo",
"......oo.ooooooooooooooooooXXXXXXXXXXoooooooooooooooooo.oo......",
"..................ooooooooooXXXXXXXXoooooooooo..................",
"....................oooooooooXXXXXXooooooooo....................",
".....................ooooooooXXXXXXoooooooo.....................",
".........................ooooXXXXXXoooo.........................",
".........................ooooXXXXXXoooo.........................",
".........................oooooXXXXooooo.........................",
".........................oooooXXXXooooo.........................",
".........................oooooXXXXooooo.........................",
"        ..................ooooXXXXoooo..................        ",
"           ...............ooooXXXXoooo...............           ",
"            ...............oooXXXXooo...............            ",
"             ..............oooXXXXooo..............             ",
"             ..............oooXXXXooo..............             ",
"              .............ooooXXoooo.............              ",
"               ............ooooXXoooo............               ",
"                ............oooXXooo............                ",
"                ............oooXXooo............                ",
"                 ...........oooXXooo...........                 ",
"                 ...........oooXXooo...........                 ",
"                 ...........oooXXooo...........                 ",
"                 ...........oooXXooo...........                 ",
"                  ..........oooXXooo..........                  ",
"                  ..........oooXXooo..........                  ",
"                  ...........ooXXoo...........                  "
};
