/* XPM */
static char *exit[] = {
/* columns rows colors chars-per-pixel */
"64 64 6 1 ",
"  c #1A1479",
". c #2A20C8",
"X c #3A2EF1",
"o c #5247F5",
"O c #6157F0",
"+ c #7A71F4",
/* pixels */
"                                                                ",
"                                                                ",
"                                                                ",
"                                                                ",
"                                                                ",
"                                  ....................          ",
"                      .................................         ",
"       .................................................        ",
"      ..................................................        ",
"      ...................................................       ",
"      ...................................................       ",
"      ...................................................       ",
"      ........................XXXXXXXXXXXX...............       ",
"     .........................XXXXXXXXXXXXXXXXX...........      ",
"     ........XXXXXXXXXXXXXXXXXXXXXXXXXXXXXXXXXXX..........      ",
"     ......XXXXXXXXXXXXXXXXXXXXXXXXXXXXXXXXXXXXXX.........      ",
"     .....XXXXXXXXXXXXXXXXXXXXXXXXXXXXXXXXXXXXXXXX........      ",
"     .....XXXXXXXXXXXXXXXXXXXXXXXXXXXXXXXXXXXXXXXX........      ",
"     .....XXXXXXXXXXXXXXXXXXXXXXXXXXXXXXXXXXXXXXXXX.......      ",
"     ....XXXXXXXXXXXXXXXXXXXoooooooooooooXXXXXXXXXX.......      ",
"     ....XXXXXXXXXXXooooooooooooooooooooooXXXXXXXXXX......      ",
"     ....XXXXXXXXooooooooooooooooooooooooooXXXXXXXXX.......     ",
"     ....XXXXXXXooooooooooooooooooooooooooooXXXXXXXX.......     ",
"     ....XXXXXXXoooooooooooooooooooooooooooooXXXXXXXX......     ",
"     ....XXXXXXooooooooooooooooooooooooooooooXXXXXXXX......     ",
"     ....XXXXXXoooooooooooooooooooooooooooooooXXXXXXXX.....     ",
"     ....XXXXXXooooooooOOOOOOOOOOOOOOoooooooooXXXXXXXX.....     ",
"     ....XXXXXXoooooooOOOOOOOOOOOOOOOooooooooooXXXXXXX.....     ",
"     ....XXXXXXoooooooOOOOOOOOOOOOOOOOOOoooooooXXXXXXX.....     ",
"     ....XXXXXXooooooOOOOOOOOOOOOOOOOOOOoooooooXXXXXXX.....     ",
"      ...XXXXXXooooooOOOOOOOOOOOOOOOOOOOoooooooXXXXXXX.....     ",
"      ....XXXXXooooooOOOOOO+++++++++OOOOoooooooXXXXXXX.....     ",
"      ....XXXXXooooooOOOOOO+++++++++OOOOoooooooXXXXXXX.....     ",
"     .....XXXXXooooooOOOOOO+++++++++OOOOoooooooXXXXXXX.....     ",
"     ......XXXXooooooOOOOOO+++++++++OOOOoooooooXXXXXXX.....     ",
"     ......XXXXooooooOOOOOO+++++++++OOOOoooooooXXXXXXX.....     ",
"     ......XXXXooooooOOOOOO+++++++++OOOOoooooooXXXXXXX.....     ",
"     ......XXXXooooooOOOOOO+++++++++OOOOoooooooXXXXXXX.....     ",
"     .......XXXooooooOOOOOO+++++++++OOOOoooooooXXXXXXX.....     ",
"     .......XXXXoooooOOOOOO+++++++++OOOOoooooooXXXXXXX.....     ",
"     .......XXXXoooooOOOOOOOOOOOOOOOOOOOoooooooXXXXXXX.....     ",
"     .......XXXXooooooOOOOOOOOOOOOOOOOOOoooooooXXXXXXX.....     ",
"     ........XXXoooooooOOOOOOOOOOOOOOOOOooooooXXXXXXXX......    ",
"     ........XXXooooooooOOOOOOOOOOOOOOOoooooooXXXXXXXX......    ",
"     ........XXXooooooooooOOOOOOOOOOOOOoooooooXXXXXXXX......    ",
"     ........XXXXoooooooooooooooooooooooooooooXXXXXXXX......    ",
"     ........XXXXXooooooooooooooooooooooooooXXXXXXXXXX......    ",
"     ........XXXXXXoooooooooooooooooooooooooXXXXXXXXXX......    ",
"     ........XXXXXXXXooooooooooooooooooooooXXXXXXXXXX.......    ",
"     ........XXXXXXXXXooooooooooooooooooooXXXXXXXXXX........    ",
"     ........XXXXXXXXXXXXXXXXXXXXXXXXXXXXXXXXXXXXX..........    ",
"     ........XXXXXXXXXXXXXXXXXXXXXXXXXXXXXXXXXXXX...........    ",
"     .........XXXXXXXXXXXXXXXXXXXXXXXXXXXXXXXXX.............    ",
"      ..........XXXXXXXXXXXXXXXXXXXXXXXXXXXX................    ",
"       ..............XXXXXXXXXXXXXXXXXXXXXX.................    ",
"        ....................................................    ",
"         ...................................................    ",
"           ...............................................      ",
"            ............................................        ",
"               .......................................          ",
"                    ...........................                 ",
"                                                                ",
"                                                                ",
"                                                                "
};
