/* XPM */
static char *player[] = {
/* columns rows colors chars-per-pixel */
"64 64 9 1 ",
"  c #670B65",
". c #4FC514",
"X c #15854E",
"o c #119253",
"O c #851583",
"+ c #EC5BE9",
"@ c #D69BA3",
"# c #A59BD6",
"$ c #EAE7EA",
/* pixels */
"XXXOOOOOOOOXXXXXXXooooooooooo##@@##oooooooooooXXXXXXXOOOOOOOOXXX",
"XXXOOOOOOOOOOOOOXXoooooooooo###@@###ooooooooooXXOOOOOOOOOOOOOXXX",
"XXXXOOOOOOOOOOOOOOoooooooooo###@@###ooooooooooOOOOOOOOOOOOOOXXXX",
"XXXXXXXXXXXOOOOOOOOooooooooo###@@###oooooooooOOOOOOOOXXXXXXXXXXX",
"XXXXXXXXXXXXXXXXOOOOoooooooo###@@###ooooooooOOOOXXXXXXXXXXXXXXXX",
"XXXXXXXXXXXXXXXXXOOOOooooooo###@@###oooooooOOOOXXXXXXXXXXXXXXXXX",
"XXXXXXXXXXXXXXXXXoOOOooooooo###@@###oooooooOOOoXXXXXXXXXXXXXXXXX",
"XXXXXXXXXXXXXXXXoooOOOoooooo###@@###ooooooOOOoooXXXXXXXXXXXXXXXX",
"XXXXXXXXXXXXXXXXoooOOOoooooo###@@###ooooooOOOoooXXXXXXXXXXXXXXXX",
"XXXXXXXXXXXXXXXoooooOOOoooo#OOOOOOOO#ooooOOOoooooXXXXXXXXXXXXXXX",
"XXXXXXXXXXXXXXooooooOOOoOOOOOOOOOOOOOOOOoOOOooooooXXXXXXXXXXXXXX",
"XXXXXXXXXXXXXoooooooOOOOOOOOOOOOOOOOOOOOOOOOoooooooXXXXXXXXXXXXX",
"XOOOOOOOOOXXXooooooooOOOOOOOOOOOOOOOOOOOOOOooooooooXXXOOOOOOOOOX",
"OOOOOOOOOOOOoooooooOOOOOOOOOO  OO  OOOOOOOOOOoooooooOOOOOOOOOOOO",
"XOOOOOOOOOOOOOooooOOOOOOOO            OOOOOOOOooooOOOOOOOOOOOOOX",
"XXXXXXXXOOOOOOOoooOOOOOO                OOOOOOoooOOOOOOOXXXXXXXX",
"ooooooooooOOOOOOoOOOOOO                  OOOOOOoOOOOOOoooooooooo",
"ooooooooooooOOOOOOOOOO       ......       OOOOOOOOOOoooooooooooo",
"ooooooooooooOOOOOOOOO    ..............    OOOOOOOOOoooooooooooo",
"oooooooooooooOOOOOOO    ................    OOOOOOOooooooooooooo",
"ooooooooooooooOOOOO    ..................    OOOOOoooooooooooooo",
"OOOOOOOOOOOOOooOOO    ....................    OOOooOOOOOOOOOOOOO",
"OOOOOOOOOOOOOOOOOO    ...++++......++++...    OOOOOOOOOOOOOOOOOO",
"OOOOOOOOOOOOOOOOOO    ..++++++....++++++..    OOOOOOOOOOOOOOOOOO",
"oooooo##OOOOOOOOOO    ...++$+++..+++$++...    OOOOOOOOOO##oooooo",
"###########OOOOOOO   ....+$+$++..++$+$+....   OOOOOOO###########",
"#############OOOOO   ....++$++....++$++....   OOOOO#############",
"#############OOOOO   .....+++......+++.....   OOOOO#############",
"@@@@@@#######OOOO   ........................   OOOO#######@@@@@@",
"@@@@@@@@@@@@@OOO    ........................    OOO@@@@@@@@@@@@@",
"@@@@@@@@@@@@@OOOO   ........................   OOOO@@@@@@@@@@@@@",
"@@@@@@@@@@@@@OOOO   ........................   OOOO@@@@@@@@@@@@@",
"@@@@@@@@@@@@@OOOO   ........................   OOOO@@@@@@@@@@@@@",
"@@@@@@@@@@@@@OOOO   ........................   OOOO@@@@@@@@@@@@@",
"@@@@@@@@@@@@@OOO    ........................    OOO@@@@@@@@@@@@@",
"@@@@@@#######OOOO   ........................   OOOO#######@@@@@@",
"#############OOOOO   .....+++......+++.....   OOOOO#############",
"#############OOOOO   ....++$++....++$++....   OOOOO#############",
"###########OOOOOOO   ....+$+$++..++$+$+....   OOOOOOO###########",
"oooooo##OOOOOOOOOO    ...++$+++..+++$++...    OOOOOOOOOO##oooooo",
"OOOOOOOOOOOOOOOOOO    ..++++++....++++++..    OOOOOOOOOOOOOOOOOO",
"OOOOOOOOOOOOOOOOOO    ...++++......++++...    OOOOOOOOOOOOOOOOOO",
"OOOOOOOOOOOOOooOOO    ....................    OOOooOOOOOOOOOOOOO",
"ooooooooooooooOOOOO    ..................    OOOOOoooooooooooooo",
"oooooooooooooOOOOOOO    ................    OOOOOOOooooooooooooo",
"ooooooooooooOOOOOOOOO    ..............    OOOOOOOOOoooooooooooo",
"ooooooooooooOOOOOOOOOO       ......       OOOOOOOOOOoooooooooooo",
"ooooooooooOOOOOOoOOOOOO                  OOOOOOoOOOOOOoooooooooo",
"XXXXXXXXOOOOOOOoooOOOOOO                OOOOOOoooOOOOOOOXXXXXXXX",
"XOOOOOOOOOOOOOooooOOOOOOOO            OOOOOOOOooooOOOOOOOOOOOOOX",
"OOOOOOOOOOOOoooooooOOOOOOOOOO  OO  OOOOOOOOOOoooooooOOOOOOOOOOOO",
"XOOOOOOOOOXXXooooooooOOOOOOOOOOOOOOOOOOOOOOooooooooXXXOOOOOOOOOX",
"XXXXXXXXXXXXXoooooooOOOOOOOOOOOOOOOOOOOOOOOOoooooooXXXXXXXXXXXXX",
"XXXXXXXXXXXXXXooooooOOOoOOOOOOOOOOOOOOOOoOOOooooooXXXXXXXXXXXXXX",
"XXXXXXXXXXXXXXXoooooOOOoooo#OOOOOOOO#ooooOOOoooooXXXXXXXXXXXXXXX",
"XXXXXXXXXXXXXXXXoooOOOoooooo###@@###ooooooOOOoooXXXXXXXXXXXXXXXX",
"XXXXXXXXXXXXXXXXoooOOOoooooo###@@###ooooooOOOoooXXXXXXXXXXXXXXXX",
"XXXXXXXXXXXXXXXXXoOOOooooooo###@@###oooooooOOOoXXXXXXXXXXXXXXXXX",
"XXXXXXXXXXXXXXXXXOOOOooooooo###@@###oooooooOOOOXXXXXXXXXXXXXXXXX",
"XXXXXXXXXXXXXXXXOOOOoooooooo###@@###ooooooooOOOOXXXXXXXXXXXXXXXX",
"XXXXXXXXXXXOOOOOOOOooooooooo###@@###oooooooooOOOOOOOOXXXXXXXXXXX",
"XXXXOOOOOOOOOOOOOOoooooooooo###@@###ooooooooooOOOOOOOOOOOOOOXXXX",
"XXXOOOOOOOOOOOOOXXoooooooooo###@@###ooooooooooXXOOOOOOOOOOOOOXXX",
"XXXOOOOOOOOXXXXXXXooooooooooo##@@##oooooooooooXXXXXXXOOOOOOOOXXX"
};
