/* XPM */
static char *player[] = {
/* columns rows colors chars-per-pixel */
"64 64 255 2 ",
"   c #2E252E",
".  c #5D2615",
"X  c #653615",
"o  c #6E3411",
"O  c #693A27",
"+  c #68362A",
"@  c #145D3C",
"#  c #185B3D",
"$  c #13623F",
"%  c #7A430C",
"&  c #7C4517",
"*  c #714730",
"=  c #3D3648",
"-  c #443947",
";  c #295D54",
":  c #136540",
">  c #136B42",
",  c #1C6845",
"<  c #137346",
"1  c #147748",
"2  c #137C4A",
"3  c #276A4B",
"4  c #26744F",
"5  c #347958",
"6  c #544950",
"7  c #72524D",
"8  c #736757",
"9  c #515F71",
"0  c #675B67",
"q  c #765E64",
"w  c #756A6F",
"e  c #864E0E",
"r  c #854A18",
"t  c #99541A",
"y  c #A65C1A",
"u  c #9B611C",
"i  c #AA6E13",
"p  c #BA6A1C",
"a  c #B57817",
"s  c #8C582D",
"d  c #96652F",
"f  c #B26F27",
"g  c #C16C1E",
"h  c #C8781E",
"j  c #D27D1E",
"k  c #CD7920",
"l  c #C97A24",
"z  c #906C53",
"x  c #906358",
"c  c #A47B4B",
"v  c #866966",
"b  c #8D7371",
"n  c #987479",
"m  c #14834D",
"M  c #11894F",
"N  c #118B50",
"B  c #35815C",
"V  c #3B8663",
"C  c #468768",
"Z  c #4B916F",
"A  c #589A7A",
"S  c #70926C",
"D  c #67827E",
"F  c #659D7C",
"G  c #AD8618",
"H  c #B58A15",
"J  c #B8972D",
"K  c #AF8A33",
"L  c #AB9536",
"P  c #B79932",
"I  c #AFA138",
"U  c #BBA534",
"Y  c #D4831F",
"T  c #C9901E",
"R  c #CC8225",
"E  c #D38423",
"W  c #DA8525",
"Q  c #C19B2E",
"!  c #C59D35",
"~  c #D0A92C",
"^  c #D9B52B",
"/  c #C8A437",
"(  c #D5AB37",
")  c #CAB233",
"_  c #D9B834",
"`  c #E3BC2D",
"'  c #F4AA3E",
"]  c #E5BC35",
"[  c #F8B83C",
"{  c #DDC037",
"}  c #F6D62E",
"|  c #EBCB31",
" . c #E9C833",
".. c #F4CA36",
"X. c #FCC53D",
"o. c #FDCB3D",
"O. c #F4D333",
"+. c #F8D937",
"@. c #F9E339",
"#. c #999351",
"$. c #A49747",
"%. c #BA9746",
"&. c #AE9154",
"*. c #B6A550",
"=. c #9A9C66",
"-. c #979172",
";. c #AD916F",
":. c #97A56E",
">. c #96A97A",
",. c #B2A66E",
"<. c #D3984D",
"1. c #EF9B4E",
"2. c #F09A4A",
"3. c #E99B58",
"4. c #CAA544",
"5. c #D6A947",
"6. c #DCB447",
"7. c #D5AB56",
"8. c #D2B157",
"9. c #F4AA44",
"0. c #EBB34C",
"q. c #F6B947",
"w. c #E7A757",
"e. c #E7BB57",
"r. c #D99C72",
"t. c #E39C66",
"y. c #D7B567",
"u. c #D2B070",
"i. c #E8B16B",
"p. c #FBC443",
"a. c #FCCA42",
"s. c #F9C74A",
"d. c #F1CD48",
"f. c #F8C756",
"g. c #E9D350",
"h. c #FAD358",
"j. c #D7C374",
"k. c #EAC567",
"l. c #FACC67",
"z. c #FCD36A",
"x. c #E8C97A",
"c. c #F4CA76",
"v. c #E9D27A",
"b. c #FDD574",
"n. c #F9D77A",
"m. c #FCD57C",
"M. c #1D66A3",
"N. c #3079B1",
"B. c #517190",
"V. c #6F7091",
"C. c #5178B1",
"Z. c #7877A3",
"A. c #2374C4",
"S. c #877785",
"D. c #9E7D81",
"F. c #A07E83",
"G. c #827CA5",
"H. c #278095",
"J. c #338DB0",
"K. c #488593",
"L. c #6D908E",
"P. c #58A594",
"I. c #6BA786",
"U. c #77AA89",
"Y. c #73AE95",
"T. c #4A8EB0",
"R. c #7092AC",
"E. c #50A5B0",
"W. c #6DAEA3",
"Q. c #338ECD",
"!. c #379FE0",
"~. c #4897D7",
"^. c #56AED2",
"/. c #6CB7D4",
"(. c #52B0ED",
"). c #6DBAED",
"_. c #7CC6DA",
"`. c #73C5F1",
"'. c #8F8F91",
"]. c #989697",
"[. c #AD9491",
"{. c #89AB88",
"}. c #88B389",
"|. c #8CB08D",
" X c #B8A999",
".X c #9193AF",
"XX c #AA9AA4",
"oX c #86A7A9",
"OX c #B6A9B1",
"+X c #D39C9A",
"@X c #D7B493",
"#X c #E8AB95",
"$X c #CB9BA1",
"%X c #CBACAC",
"&X c #C8B5BA",
"*X c #D3B5BB",
"=X c #E5B4A7",
"-X c #D6C389",
";X c #F8D587",
":X c #FCD983",
">X c #FDDA8C",
",X c #EACE91",
"<X c #FDDA94",
"1X c #F3DB98",
"2X c #FDDC9C",
"3X c #FAE19F",
"4X c #ECD4AD",
"5X c #FADDA4",
"6X c #FDE2A5",
"7X c #F5E3AF",
"8X c #FCE4AC",
"9X c #EDE1B4",
"0X c #FCE6B3",
"qX c #FDE8B4",
"wX c #FAE7BB",
"eX c #B9B7CB",
"rX c #ABBAE6",
"tX c #C6BAC5",
"yX c #D3BDC5",
"uX c #87CCDC",
"iX c #B4C3CA",
"pX c #8BCBEC",
"aX c #9AD7E9",
"sX c #9AD7F6",
"dX c #ADD1EC",
"fX c #A8DAEE",
"gX c #A8DBF7",
"hX c #ACE3F7",
"jX c #B8E5F8",
"kX c #D6CBD0",
"lX c #D8CBD5",
"zX c #E4D4D9",
"xX c #DBE2DF",
"cX c #ECE4C4",
"vX c #FCE9C4",
"bX c #F4E8CA",
"nX c #FCEACB",
"mX c #F9ECD7",
"MX c #CCD3E8",
"NX c #DAD7E7",
"BX c #E8D9E5",
"VX c #EDDCED",
"CX c #C6E6FA",
"ZX c #C9E9FB",
"AX c #D7EFF8",
"SX c #D6ECFB",
"DX c #EAE3EB",
"FX c #F4E6E8",
"GX c #E9E8F6",
"HX c #F7E9F7",
"JX c #F5ECF4",
"KX c #E3F1FA",
"LX c #F8F1F7",
"PX c #FCF4FC",
"IX c #FEFAFD",
/* pixels */
"m M m m m m m m m m m m 2 m 2 2 2 1 m 2 1 < 1 < $ $ $ < 3 V.V.n v V.G.; 3 , > > $ < < 1 2 m 1 1 2 m 2 m m m m m m m m m m m m m ",
"m m m m m m m m m m m m m 2 2 1 2 2 < < < $ $ $ , C I.U.yXyX*X=X=X*X*X*X>.{.}.U.C $ $ $ < $ < 1 1 2 2 2 m m m m m m m m m M N m ",
"m m m m m m m m m m m m 2 1 1 < $ $ < $ 1 Z Y.}.|.>.$.L t.3.t.1.2.t.3.t.L L L $.>.}.Y.I.B $ $ $ < 1 1 2 2 m m m m m m m m m m m ",
"m N m m m m m m m m m 2 1 < < $ $ $ Z F U.>.$.P J P Q / w.t.t.3.3.i.t.t.! / ! J J L $.#.U.I.m $ $ $ < 1 2 2 2 m m m m m m m m N ",
"N m m m m m m m m 2 1 1 1 , $ $ 3 I.}.$.L P P 4.4.8.y.j.,X4X4X4X4X4X9X4X-Xu.u.8.4./ P P L =.}.C # $ $ < 1 1 m 2 m m m m m m m N ",
"m m m m N m m m 2 2 1 < $ $ $ F {.#.J J ! 4.8.u.-X,X9XcXbXBXFXmXFXFXFXmXbXcX9X4X,Xu.8.4.J P L >.S 5 @ $ $ < 1 2 m m m m m m m m ",
"m m N m m m m m 2 1 < > @ 3 F :.K J ! 4.u.@X4X4XcXbXxXmXmXmXFXmXmXmXmXmXmXmXbXxXcX9X,X-X8./ U L =.{.C @ $ $ < 2 1 4 m m m m m m ",
"m m m m m m 4 m 1 < $ $ 3 {.=.J Q 4.8.-X4XcXcXbXmXmXnXmXmXmXmXmXmXmXmXmXbXnXnXbXmXbXbXcX4Xj.8.4.J L >.F 3 $ $ 1 $ m m m m m m m ",
"m m m m m m 2 2 < , $ 3 }.#.J ! 5.y.,X9XcXbXbXvXnXnXnXnXnXnXnXnXmXnXnXmXnXnXnXnXnXnXbXbX9X9X,Xu./ Q K =.U.3 $ : 2 2 m m m m m m ",
"m m m m m 2 1 2 > $ # U.#.J ! 5.u.4X9XbXbXvXvXvXvXnXnXnXnXnXnXnXnXnXnXnXnXnXnXnXnXnXnXnXbXbXcX,Xy.5.! J #.U.5 $ $ $ $ 2 m m m m ",
"m m m 2 1 1 2 $ $ # F =.J ! 7.-X4X9X9XvXvXvXvXvXvXvXvXnXnXnXvXnXnXnXnXnXnXnXnXnXvXvXvXvXvXwXwX7X1Xj.5.! J #.}.3 $ $ m m 2 2 m m ",
"m m m m m $ $ $ @ F =.J / 7.x.4XwX9XwXwX0XwXwXwXvXqXwXvXvXvXvXwXwXwXvXwXvXwXwXwXvXvXwXwXwXwX9X7X7X4Xx.7.! J #.U., $ $ m 2 m m m ",
"m m 2 1 2 $ $ , Z >.L / 5.j.4X7X7X0XwX0XqXqXqXqXqXqXwXqXqXwXqXqXqXqXqXqXqXqXqXqXwXwXqXqXqXqX0X7X7X9X5Xu.5./ J =.F $ $ 1 $ m m m ",
"m 2 2 1 $ $ $ F >.L / 5.i.1X9X7X7X8X5X0XqXqX8XqXqX8XqXqX8XqXqXqXqXqXqXqXqXqX8XqXqXqXqX8X8XqX0X7X7X7X4X1Xi.( Q L >.C $ $ 2 2 2 2 ",
"m m 1 , $ $ Z {.K Q ( e.,X1X5X7X6X8X8X8X6X8X8X8X8X8X8X8XqX8X8X8XqX8X8XqX8X8X8X6X8X8X8X8X6X6X8X6X6X6X8X1Xv.6.( Q $.|.4 $ , < 1 m ",
"2 2 m $ # 3 |.L Q ( 6.x.,X1X5X5X5X5X5X6X6X6X8X6X6X6X6X6X8X6X6X6X3X6X6X6X6X6X6X6X3X6X8X6X6X3X6X3X6X6X3X1X1Xk.6.~ Q =.S $ $ < 1 1 ",
"m m 2 $ 1 Y.:.U ~ ( e.;X1X1X2X2X1X2X2X5X2X5X2X5X5X2X5X5X2X2X2X2X2X2X2X5X5X2X3X3X3X3X2X3X2X2X2X3X1X1X<X1X1Xv.g.( / L }.V < 1 m M ",
"m m m $ F >.L ~ _ 6.c.;X1X<X<X<X<X<X<X2X2X<X<X<X<X2X<X<X<X<X<X<X2X<X<X2X2X2X<X<X<X<X<X<X<X<X<X<X<X<X<X<X1X;Xk.6.( P $.U.1 > 1 m ",
"m m $ m }.$.J ) e.k.v.>X;X<X>X>X<X<X<X<X<X<X<X<X<X>X:Xm.m.:X<X<X>X>X;X;X>X>X>X<X<X<X<X>X>X>X>X>X<X>X>X>X;X;Xv.8._ 4.I >.B > < M ",
"m 2 $ B }.L *.j.v.v.n.:X;X:X:X:X:X;X;X>X;X;X;X;X:X:Xl.s.[ f.>X:X:X:Xf.q.l.m.:X>X>X>X>X:X:X:X>X>X:X>X:X>X:X:Xn.;Xv.8.U =.I.$ > 2 ",
"M 1 > B >.P 4.v.;Xv.n.n.:Xm.:Xm.;X;X<X,X>X>X:X;Xm.:Xz.f.[ l.:X:Xm.:Xf.p.h.m.m.m.:X:X>X:X;X;X;X>Xn.:Xm.:Xm.:Xn.v.v.j.) L U.< < 1 ",
"2 < : 5 |.Q 4.v.v.n.n.n.b.b.m.c.&.d z <.i.>Xm.m.m.m.l.f.[ f.m.m.m.m.s.p.h.b.b.b.b.m.-X7.c d c i.m.m.c.b.m.m.n.n.v.e./ P :.A > 1 ",
"2 < $ A :./ 6.v.v.b.z.z.b.b.c.;X&.O X o r &.i.:Xb.b.l.f.X.f.b.b.b.m.f.s.l.z.z.b.k.<.s o X + z @X,X,X;Xb.z.b.z.v.z.e.( / $.I.$ < ",
"2 > , }.P ) 6.k.k.l.l.z.b.n.@Xu.r.[.x s & % s y.b.b.z.s.p.f.z.z.l.z.f.s.h.z.b.k.d o % s x 8 8 0 0 v [.,Xb.z.l.l.k.g._ / I U.$ > ",
"< > B {.J ( 0.f.f.f.h.c.;.v w S.V.w q v z r % r 7.c.h.s.X.a.h.f.f.f.s.s.h.h.i.u % r s 7 w ].OXOXOXXXS.q u.c.f.s.f.d.6.( U >.Z < ",
"Z.V..X=Xw.0.q.s.d.s.k.z b XXOXtXyXtXOX'.q x r e s i.l.s.X.o.a.p.a.a.a.a.h.f.f % r d x '.OXkXNXNXNXlXtXXXq u.f.s.s.q.q.w.w.+X.XV.",
"Z..XtXr.w.0.q.a.X.f.$.b OXlXBXDXDXVXNXyXXXv z & o f e.s.X.X.a.a.a.a.a.a.s.K % e d z '.kXBXJXJXLXHXHXVXlXOX8 i.f.p.p.q.w.3.@X.XZ.",
"Z..X%X3.9.0.s.p.s.7.v tXzXJXLXJXPXPXPXGXlX].#.&.e e <.h.a.o.o.o.a.a.o.a.5.e % u u.v &XVXPXIXDXkXBXPXPXHXlX].<.l.p.p.d.0.w.r.yXG.",
"n [.#X1.2.9.q.a.f.$. XBXHXPXBX'.'.kXIXIXJXkXb j.f % d q.s.a.o.o.a.a.a.p.f % u 6.y.[.NXPXIXBX6     OXPXPXGXtX&.l.p.p.p.9.1.1.=X[.",
"D.[.#X1.9.[ p.p.0.z yXHXPXJX0     = lXIXIXDX].u.e.u o 5.a.p.a.o.a.o.a.0.e e 6.h.4.OXFXPXIX].= = = 6 GXIXPXlXn c.s.o.q.q.9.1.=Xn ",
"n [.#X1.' [ q.p.e.n VXPXIXNX- 6 - 6 OXIXIXGXXXu.z.( % 4.a.o.a.a.o.o.p.6.e P h.h.%.&XJXIXIX'.0 0 0 0 DXIXLXBX;.i.a.p.q.q.9.1.=XD.",
"n F.#X1.9.[ [ p.q.c VXLXIXBX0 w w 0 kXPXLXGXXXy.f.d. .d.a.p.o.a.a.o.p.s.6.l.d.h.,.OXJXIXIXkX0 w 0 ].LXIXLXzX;.l.a.X.q.q.9.1.=XD.",
"n [.#X2.' [ X.p.q.&.lXPXPXPXtXw 0 XXLXPXPXVX'.@Xl.h.a.a.o.X.o.o.o.o.X.p.h.g.,X XV.].DXPXIXIXNXXXkXHXPXPXHX&X*.f.p.X.X.[ 9.1.=XD.",
"n [.#X2.' [ [ p.a.4.%XFXPXPXPXHXDXPXPXPXHXkXL.oX Xk.f.a.X.X.o.o.+.o.X.s.f.j.{.K.T..XtXFXLXLXIXPXPXHXLXHXzX'.i.s.a.X.[ ' 9.1.=XD.",
"n [.#X2.' [ [ o.o.q.&.kXGXHXPXPXPXPXPXLXBX]..XJ.K.|.-Xs.X.o.o.} } } p.k.@XL.N.).CXxX'.lXJXJXLXLXLXJXHXBX X7.s.X.o.X.[ [ 9.1.=XD.",
"n [.#X2.' ' q.d.a.o. .;.kXFXJXJXJXJXFXzXOXtXSXpX~.A.R.-Xk.X.o.+.} o.e.'.N.Q./.CXKXLXiXoXkXxXFXJXFXFXkXXX*.f...o.o.s.q.[ ' t.*Xn ",
"G.G.tXr.1.w.y.d.a.a.d.e.&.$XkXxXBXlXeX.XiXKXKXKXdX~.A.R.XXk.a.+.a.d.>.N.Q.`.CXAXGXKXrXR.'.[.%X%X X[.;.y.f.a.X.o.a.u.,.y.w.+X.XV.",
"G.V.G.%Xu. X'.u.7.4.%.f #.d z ;.-.b S.E.gXGXSXKXSXgX^.Q.N.;.7.w.e.w.R.(.sXZXAXSXSXSXpXM.6 x &.;.;.&.c f f <.<.<.7.].J.'.r.%X.XV.",
"G.V.G.*X[.R.J.V.oXOXeXkXiX&XiXiXC.9 0 V.L.].].'.'.'.V.0 6 - o . o X oXjXSXSXSXZXSXCX(.A.C.v 7 + + . . . . . . o X V.!.J.G.%X.XZ.",
"< , 5 oXC.J.~.).dXZXCXCXZXZXZXjXQ.C.eXyX%X%X X[.n n n v x 7 x x 7 7 eXZXZXZXZXSXSXCX(.N.rXkXyXtXOXOX[.n n b x 7 x R.^.Q.B.Y.C : ",
"1 , @ Y.H.Q.(.`.jXCXCXZXZXZXZXhXQ.C.rXBXVXBXVXVXHXVXHXVXVXFXVXBXzXBXDXGXVXGXGXHXGXGXMXMXMXNXlXrXR./.MXSXSXNXSXMXMXfX`.^.J.W.B > ",
"2 $ $ W.J.^.`.pXjXZXCXZXCXZXZXsX!.C.MXBXVXVXVXVXHXHXHXHXPXPXIXIXPXPXPXPXPXPXHXHXHXGXBXBXNXzXBXrXA.~.jXZXCXZXCXjXCXfX_.).!.P.Z > ",
"2 > 4 W.J./.uXaXjXZXZXZXCXZXjX`.A.C.OXyXBXVXHXHXHXHXLXIXPXIXIXIXIXIXPXIXPXPXLXLXHXHXGXVXxXkXOXZ.A.!.sXZXCXCXZXZXCXfXaX_.^.E.Z > ",
"2 > B P.E./.pXaXjXZXZXZXCXjXsX(.Q.= + 7 D.$X*XlXFXHXPXLXPXPXIXIXIXIXIXPXIXPXLXFXBXlXyX[.b 7 X - M.Q.).hXjXCXZXZXjXfXaX_.E.E.Z > ",
"M $ V P.E._._.aXhXZXZXjXjXhX`.(.N.7 r o o . X 7 v n [. X%X*X4XkXkXkXyX*X%X X[.b x * + . o % r 7 M.Q.(.pXsXjXZXZXjXaXaX_.^.E.Z 2 ",
"m 2 B P.Q._.uXaXfXjXjXhXhX`.`.!.B.s y t t t r & & o X X O + + O * O + o + o o o & & r t y y y s M.N.(.).sXhXhXjXhXhXaX_.^.P.Z $ ",
"m $ $ P.E.^.uXaXfXhXhXsXsX`.).Q.6 s p g g g p p p y y y t t t t y t t t y y y y y p p p p p p u 0 N.!.).sXsXhXhXhXaX_._.E.P.Z 2 ",
"M M 1 Z P.E._.uXaXsXsXsXsX`.^.K.#.y p g g l l g l k f p p g g p g p g g g g g l k k l l h g y G 8.L.A.(.`.aXaXaXaXuX_.^.J.P.V $ ",
"$ 2 $ 2 I.J.E._.uXuXuXpX`.(.K.S g.{ G i a f l l Y R h j Y j j R l j R j j j j h Y Y E j g p G O.g.,.K.J.(.).pXpXpX/.^.T.P.A $ > ",
"m $ $ $ Z W.E.E.^./.).^.^.K.S ) g.@.{ i p K l R R Y R Y Y Y Y Y Y Y E W Y j Y h j h l f i H | @.@.g.*.D K.~.^.^.^.^.E.W.A $ $ < ",
"m 1 m $ $ 5 I.Y.E.T.J.J.Z 8 Q | } @.@. .H i a R R E Y Y W Y Y Y Y Y E E Y Y Y Y l l a i T +.@.+.O...d.4.S B.C.J.H.W.Y.V $ $ 1 1 ",
"2 m 2 2 > $ $ Z I.Y.Y.8 #.U ^ |  .} @.@.+.) H i f H R E W Y Y Y Y E E R E E Y h a i H { @.@.+.O.O.X.] ( L #.w Y.Y.L.# @ $ < 1 2 ",
"m 2 1 1 $ $ $ $ # # I.=.K P ) _ | | } } @.@.@.U H a G h R R Y R R R R R R H a i H _ +.@.} } O..... .] ~ P ;.{.L.# # $ $ 1 1 2 m ",
"m m m 2 m m m $ : # # I.>.L U ) ) | | | | } @.@.+.^ Q G G i a a a a a G a H ~  .@.@.@.+.} } ..| ] ^ ~ P &.'.U.# # $ < < 1 2 2 m ",
"m m m 2 m 1 1 $ , > $ @ Z }.$.I U ) { |  .| } } @.@.@.O.| | { ^ ^ ^ {  .| @.@.@.} } } | .... .] ( ~ %.;.>.Y.3 : $ $ < 1 2 2 m m ",
"m m m m m 2 2 1 1 < , $ # 5 U.:.I I ) ) { {  .} | } +.@.} @.@.@.@.@.@.@.@.@.@.} } } ..| ] ` ^ ( ! &.=.|.I.V # , < 2 1 2 m m 2 m ",
"m m m m m 2 m m 1 1 1 > > @ 3 Z }.:.I ) ) { { |  .| | O.+.} } +.@.+.+.+.} O.O.| | ..` ` ` ~ / %.&.>.|.Z $ $ $ $ 1 2 2 m m m m m ",
"m m m m m m m m 2 2 1 1 < > $ # 4 A }.=.I U U { _ _  . .+.o.o.+.+.+.o...O. . . .] ` ^ ( ~ ! #.=.{.U.3 $ $ $ m m 2 m 2 m m m m m ",
"m m m m m m m m m m 2 1 1 < > , $ $ 1 A >.$.I I U ) _ _ q.s.q.q.p.X.X. .] ] ] ( ~ ~ 4.%.&.>.{.oXI.@ $ $ 1 1 $ m m m m m m m m m ",
"m m m m m m m m m m 2 m 2 1 1 < > < > $ Z I.}.>.$.I U Q w.0.9.2.' 0.' ' ( ( ( ! 4.&.=.:.{.|.A 5 @ @ $ 2 $ 2 2 m 2 m m m m m m m ",
"m m m m m m m m m m m m m 2 1 1 2 1 < > > $ $ P.Y.|.>.#.+Xr.t.3.w.t.t.t.%.%.;.=.:.>.Y.Y.I., : : : > 1 1 m m 4 m m m m m m m m m ",
"N m m m m m m N m m m m m m 2 m 2 1 m 2 1 < $ > : 4 A }.tX$X$X+X+X$X$X$X-.{.|.|.Y.P.Z : > > , > < 1 1 2 m m m m m m m m m m m m ",
"N B N m m m m m m m m m m m m m 2 2 M m m 2 < < < > > 4 .XeXtX*X*XeXeXeXY.I.P.5 $ $ > > < 2 < 1 1 1 m 2 m m m m m m m m m m N m ",
"N m m m m m m m m m m m m m m m m 2 M M M M M 2 2 1 1 1 $ V.V.b v V.V.$ > $ > $ < < < 2 2 m 2 1 m m m m m m m m m m m m m N m m "
};
