/* XPM */
static char *player[] = {
/* columns rows colors chars-per-pixel */
"64 64 6 1 ",
"  c #670B65",
". c #4FC514",
"X c #851583",
"o c #EC5BE9",
"O c #EAE7EA",
"+ c None",
/* pixels */
"+++XXXXXXXX++++++++++++++++++++++++++++++++++++++++++XXXXXXXX+++",
"+++XXXXXXXXXXXXX++++++++++++++++++++++++++++++++XXXXXXXXXXXXX+++",
"++++XXXXXXXXXXXXXX++++++++++++++++++++++++++++XXXXXXXXXXXXXX++++",
"+++++++++++XXXXXXXX++++++++++++++++++++++++++XXXXXXXX+++++++++++",
"++++++++++++++++XXXX++++++++++++++++++++++++XXXX++++++++++++++++",
"+++++++++++++++++XXXX++++++++++++++++++++++XXXX+++++++++++++++++",
"++++++++++++++++++XXX++++++++++++++++++++++XXX++++++++++++++++++",
"+++++++++++++++++++XXX++++++++++++++++++++XXX+++++++++++++++++++",
"+++++++++++++++++++XXX++++++++++++++++++++XXX+++++++++++++++++++",
"++++++++++++++++++++XXX+++++XXXXXXXX+++++XXX++++++++++++++++++++",
"++++++++++++++++++++XXX+XXXXXXXXXXXXXXXX+XXX++++++++++++++++++++",
"++++++++++++++++++++XXXXXXXXXXXXXXXXXXXXXXXX++++++++++++++++++++",
"+XXXXXXXXX+++++++++++XXXXXXXXXXXXXXXXXXXXXX+++++++++++XXXXXXXXX+",
"XXXXXXXXXXXX+++++++XXXXXXXXXX  XX  XXXXXXXXXX+++++++XXXXXXXXXXXX",
"+XXXXXXXXXXXXX++++XXXXXXXX            XXXXXXXX++++XXXXXXXXXXXXX+",
"++++++++XXXXXXX+++XXXXXX                XXXXXX+++XXXXXXX++++++++",
"++++++++++XXXXXX+XXXXXX                  XXXXXX+XXXXXX++++++++++",
"++++++++++++XXXXXXXXXX       ......       XXXXXXXXXX++++++++++++",
"++++++++++++XXXXXXXXX    ..............    XXXXXXXXX++++++++++++",
"+++++++++++++XXXXXXX    ................    XXXXXXX+++++++++++++",
"++++++++++++++XXXXX    ..................    XXXXX++++++++++++++",
"XXXXXXXXXXXXX++XXX    ....................    XXX++XXXXXXXXXXXXX",
"XXXXXXXXXXXXXXXXXX    ...oooo......oooo...    XXXXXXXXXXXXXXXXXX",
"XXXXXXXXXXXXXXXXXX    ..oooooo....oooooo..    XXXXXXXXXXXXXXXXXX",
"++++++++XXXXXXXXXX    ...ooOooo..oooOoo...    XXXXXXXXXX++++++++",
"+++++++++++XXXXXXX   ....oOoOoo..ooOoOo....   XXXXXXX+++++++++++",
"+++++++++++++XXXXX   ....ooOoo....ooOoo....   XXXXX+++++++++++++",
"+++++++++++++XXXXX   .....ooo......ooo.....   XXXXX+++++++++++++",
"+++++++++++++XXXX   ........................   XXXX+++++++++++++",
"+++++++++++++XXX    ........................    XXX+++++++++++++",
"+++++++++++++XXXX   ........................   XXXX+++++++++++++",
"+++++++++++++XXXX   ........................   XXXX+++++++++++++",
"+++++++++++++XXXX   ........................   XXXX+++++++++++++",
"+++++++++++++XXXX   ........................   XXXX+++++++++++++",
"+++++++++++++XXX    ........................    XXX+++++++++++++",
"+++++++++++++XXXX   ........................   XXXX+++++++++++++",
"+++++++++++++XXXXX   .....ooo......ooo.....   XXXXX+++++++++++++",
"+++++++++++++XXXXX   ....ooOoo....ooOoo....   XXXXX+++++++++++++",
"+++++++++++XXXXXXX   ....oOoOoo..ooOoOo....   XXXXXXX+++++++++++",
"++++++++XXXXXXXXXX    ...ooOooo..oooOoo...    XXXXXXXXXX++++++++",
"XXXXXXXXXXXXXXXXXX    ..oooooo....oooooo..    XXXXXXXXXXXXXXXXXX",
"XXXXXXXXXXXXXXXXXX    ...oooo......oooo...    XXXXXXXXXXXXXXXXXX",
"XXXXXXXXXXXXX++XXX    ....................    XXX++XXXXXXXXXXXXX",
"++++++++++++++XXXXX    ..................    XXXXX++++++++++++++",
"+++++++++++++XXXXXXX    ................    XXXXXXX+++++++++++++",
"++++++++++++XXXXXXXXX    ..............    XXXXXXXXX++++++++++++",
"++++++++++++XXXXXXXXXX       ......       XXXXXXXXXX++++++++++++",
"++++++++++XXXXXX+XXXXXX                  XXXXXX+XXXXXX++++++++++",
"++++++++XXXXXXX+++XXXXXX                XXXXXX+++XXXXXXX++++++++",
"+XXXXXXXXXXXXX++++XXXXXXXX            XXXXXXXX++++XXXXXXXXXXXXX+",
"XXXXXXXXXXXX+++++++XXXXXXXXXX  XX  XXXXXXXXXX+++++++XXXXXXXXXXXX",
"+XXXXXXXXX+++++++++++XXXXXXXXXXXXXXXXXXXXXX+++++++++++XXXXXXXXX+",
"++++++++++++++++++++XXXXXXXXXXXXXXXXXXXXXXXX++++++++++++++++++++",
"++++++++++++++++++++XXX+XXXXXXXXXXXXXXXX+XXX++++++++++++++++++++",
"++++++++++++++++++++XXX+++++XXXXXXXX+++++XXX++++++++++++++++++++",
"+++++++++++++++++++XXX++++++++++++++++++++XXX+++++++++++++++++++",
"+++++++++++++++++++XXX++++++++++++++++++++XXX+++++++++++++++++++",
"++++++++++++++++++XXX++++++++++++++++++++++XXX++++++++++++++++++",
"+++++++++++++++++XXXX++++++++++++++++++++++XXXX+++++++++++++++++",
"++++++++++++++++XXXX++++++++++++++++++++++++XXXX++++++++++++++++",
"+++++++++++XXXXXXXX++++++++++++++++++++++++++XXXXXXXX+++++++++++",
"++++XXXXXXXXXXXXXX++++++++++++++++++++++++++++XXXXXXXXXXXXXX++++",
"+++XXXXXXXXXXXXX++++++++++++++++++++++++++++++++XXXXXXXXXXXXX+++",
"+++XXXXXXXX++++++++++++++++++++++++++++++++++++++++++XXXXXXXX+++"
};
