/* XPM */
static char *texture[] = {
/* columns rows colors chars-per-pixel */
"80 80 5 1 ",
"  c #390F22",
". c #145924",
"X c #1A1479",
"o c #1FAF46",
"O c #8C1FAF",
/* pixels */
".....                                                                      OOOOO",
".....                                                                      OOOOO",
".....                                                                      OOOOO",
".....                                                                      OOOOO",
".....                                                                      OOOOO",
"..........                                                       OOOOOOOOOOOOOOO",
"..........                                                       OOOOOOOOOOOOOOO",
"..........                                                       OOOOOOOOOOOOOOO",
"..........                                                       OOOOOOOOOOOOOOO",
"..........                                                       OOOOOOOOOOOOOOO",
"ooooo..........                                             OOOOOOOOOOOOOOOXXXXX",
"ooooo..........                                             OOOOOOOOOOOOOOOXXXXX",
"ooooo..........                                             OOOOOOOOOOOOOOOXXXXX",
"ooooo..........                                             OOOOOOOOOOOOOOOXXXXX",
"ooooo..........                                             OOOOOOOOOOOOOOOXXXXX",
"oooooooooo..........                                   OOOOOOOOOOXXXXXXXXXXXXXXX",
"oooooooooo..........                                   OOOOOOOOOOXXXXXXXXXXXXXXX",
"oooooooooo..........                                   OOOOOOOOOOXXXXXXXXXXXXXXX",
"oooooooooo..........                                   OOOOOOOOOOXXXXXXXXXXXXXXX",
"oooooooooo..........                                   OOOOOOOOOOXXXXXXXXXXXXXXX",
"ooooooooooooooo..........                    OOOOOOOOOOOOOOOXXXXXXXXXXXXXXXXXXXX",
"ooooooooooooooo..........                    OOOOOOOOOOOOOOOXXXXXXXXXXXXXXXXXXXX",
"ooooooooooooooo..........                    OOOOOOOOOOOOOOOXXXXXXXXXXXXXXXXXXXX",
"ooooooooooooooo..........                    OOOOOOOOOOOOOOOXXXXXXXXXXXXXXXXXXXX",
"ooooooooooooooo..........                    OOOOOOOOOOOOOOOXXXXXXXXXXXXXXXXXXXX",
"oooooooooooooooooooo..........          OOOOOOOOOOXXXXXXXXXXXXXXXXXXXXXXXXXXXXXX",
"oooooooooooooooooooo..........          OOOOOOOOOOXXXXXXXXXXXXXXXXXXXXXXXXXXXXXX",
"oooooooooooooooooooo..........          OOOOOOOOOOXXXXXXXXXXXXXXXXXXXXXXXXXXXXXX",
"oooooooooooooooooooo..........          OOOOOOOOOOXXXXXXXXXXXXXXXXXXXXXXXXXXXXXX",
"oooooooooooooooooooo..........          OOOOOOOOOOXXXXXXXXXXXXXXXXXXXXXXXXXXXXXX",
"ooooooooooooooooooooooooo.....OOOOOOOOOOOOOOOXXXXXXXXXXXXXXXXXXXXXXXXXXXXXXXXXXX",
"ooooooooooooooooooooooooo.....OOOOOOOOOOOOOOOXXXXXXXXXXXXXXXXXXXXXXXXXXXXXXXXXXX",
"ooooooooooooooooooooooooo.....OOOOOOOOOOOOOOOXXXXXXXXXXXXXXXXXXXXXXXXXXXXXXXXXXX",
"ooooooooooooooooooooooooo.....OOOOOOOOOOOOOOOXXXXXXXXXXXXXXXXXXXXXXXXXXXXXXXXXXX",
"ooooooooooooooooooooooooo.....OOOOOOOOOOOOOOOXXXXXXXXXXXXXXXXXXXXXXXXXXXXXXXXXXX",
"oooooooooooooooooooooooooOOOOOOOOOOOOOOOXXXXXXXXXXXXXXXXXXXXXXXXXXXXXXXXXXXXXXXX",
"oooooooooooooooooooooooooOOOOOOOOOOOOOOOXXXXXXXXXXXXXXXXXXXXXXXXXXXXXXXXXXXXXXXX",
"oooooooooooooooooooooooooOOOOOOOOOOOOOOOXXXXXXXXXXXXXXXXXXXXXXXXXXXXXXXXXXXXXXXX",
"oooooooooooooooooooooooooOOOOOOOOOOOOOOOXXXXXXXXXXXXXXXXXXXXXXXXXXXXXXXXXXXXXXXX",
"oooooooooooooooooooooooooOOOOOOOOOOOOOOOXXXXXXXXXXXXXXXXXXXXXXXXXXXXXXXXXXXXXXXX",
"ooooooooooooooooooooOOOOOOOOOO     ..........XXXXXXXXXXXXXXXXXXXXXXXXXXXXXXXXXXX",
"ooooooooooooooooooooOOOOOOOOOO     ..........XXXXXXXXXXXXXXXXXXXXXXXXXXXXXXXXXXX",
"ooooooooooooooooooooOOOOOOOOOO     ..........XXXXXXXXXXXXXXXXXXXXXXXXXXXXXXXXXXX",
"ooooooooooooooooooooOOOOOOOOOO     ..........XXXXXXXXXXXXXXXXXXXXXXXXXXXXXXXXXXX",
"ooooooooooooooooooooOOOOOOOOOO     ..........XXXXXXXXXXXXXXXXXXXXXXXXXXXXXXXXXXX",
"oooooooooooooooOOOOOOOOOO               ..........XXXXXXXXXXXXXXXXXXXXXXXXXXXXXX",
"oooooooooooooooOOOOOOOOOO               ..........XXXXXXXXXXXXXXXXXXXXXXXXXXXXXX",
"oooooooooooooooOOOOOOOOOO               ..........XXXXXXXXXXXXXXXXXXXXXXXXXXXXXX",
"oooooooooooooooOOOOOOOOOO               ..........XXXXXXXXXXXXXXXXXXXXXXXXXXXXXX",
"oooooooooooooooOOOOOOOOOO               ..........XXXXXXXXXXXXXXXXXXXXXXXXXXXXXX",
"ooooooooooOOOOOOOOOO                         ..........XXXXXXXXXXXXXXXXXXXXXXXXX",
"ooooooooooOOOOOOOOOO                         ..........XXXXXXXXXXXXXXXXXXXXXXXXX",
"ooooooooooOOOOOOOOOO                         ..........XXXXXXXXXXXXXXXXXXXXXXXXX",
"ooooooooooOOOOOOOOOO                         ..........XXXXXXXXXXXXXXXXXXXXXXXXX",
"ooooooooooOOOOOOOOOO                         ..........XXXXXXXXXXXXXXXXXXXXXXXXX",
"oooooOOOOOOOOOO                                   ..........XXXXXXXXXXXXXXXXXXXX",
"oooooOOOOOOOOOO                                   ..........XXXXXXXXXXXXXXXXXXXX",
"oooooOOOOOOOOOO                                   ..........XXXXXXXXXXXXXXXXXXXX",
"oooooOOOOOOOOOO                                   ..........XXXXXXXXXXXXXXXXXXXX",
"oooooOOOOOOOOOO                                   ..........XXXXXXXXXXXXXXXXXXXX",
"OOOOOOOOOO                                             ..........XXXXXXXXXXXXXXX",
"OOOOOOOOOO                                             ..........XXXXXXXXXXXXXXX",
"OOOOOOOOOO                                             ..........XXXXXXXXXXXXXXX",
"OOOOOOOOOO                                             ..........XXXXXXXXXXXXXXX",
"OOOOOOOOOO                                             ..........XXXXXXXXXXXXXXX",
"OOOOO                                                       ..........XXXXXXXXXX",
"OOOOO                                                       ..........XXXXXXXXXX",
"OOOOO                                                       ..........XXXXXXXXXX",
"OOOOO                                                       ..........XXXXXXXXXX",
"OOOOO                                                       ..........XXXXXXXXXX",
"                                                                 ..........XXXXX",
"                                                                 ..........XXXXX",
"                                                                 ..........XXXXX",
"                                                                 ..........XXXXX",
"                                                                 ..........XXXXX",
"                                                                      ..........",
"                                                                      ..........",
"                                                                      ..........",
"                                                                      ..........",
"                                                                      .........."
};
