/* XPM */
static char *wall[] = {
/* columns rows colors chars-per-pixel */
"64 64 5 1 ",
"  c #390F22",
". c #145924",
"X c #1A1479",
"o c #1FAF46",
"O c #8C1FAF",
/* pixels */
"....                                                        OOOO",
"....                                                        OOOO",
"....                                                        OOOO",
"....                                                        OOOO",
"........                                            OOOOOOOOOOOO",
"........                                            OOOOOOOOOOOO",
"........                                            OOOOOOOOOOOO",
"........                                            OOOOOOOOOOOO",
"oooo........                                    OOOOOOOOOOOOXXXX",
"oooo........                                    OOOOOOOOOOOOXXXX",
"oooo........                                    OOOOOOOOOOOOXXXX",
"oooo........                                    OOOOOOOOOOOOXXXX",
"oooooooo........                            OOOOOOOOXXXXXXXXXXXX",
"oooooooo........                            OOOOOOOOXXXXXXXXXXXX",
"oooooooo........                            OOOOOOOOXXXXXXXXXXXX",
"oooooooo........                            OOOOOOOOXXXXXXXXXXXX",
"oooooooooooo........                OOOOOOOOOOOOXXXXXXXXXXXXXXXX",
"oooooooooooo........                OOOOOOOOOOOOXXXXXXXXXXXXXXXX",
"oooooooooooo........                OOOOOOOOOOOOXXXXXXXXXXXXXXXX",
"oooooooooooo........                OOOOOOOOOOOOXXXXXXXXXXXXXXXX",
"oooooooooooooooo........        OOOOOOOOXXXXXXXXXXXXXXXXXXXXXXXX",
"oooooooooooooooo........        OOOOOOOOXXXXXXXXXXXXXXXXXXXXXXXX",
"oooooooooooooooo........        OOOOOOOOXXXXXXXXXXXXXXXXXXXXXXXX",
"oooooooooooooooo........        OOOOOOOOXXXXXXXXXXXXXXXXXXXXXXXX",
"oooooooooooooooooooo....OOOOOOOOOOOOXXXXXXXXXXXXXXXXXXXXXXXXXXXX",
"oooooooooooooooooooo....OOOOOOOOOOOOXXXXXXXXXXXXXXXXXXXXXXXXXXXX",
"oooooooooooooooooooo....OOOOOOOOOOOOXXXXXXXXXXXXXXXXXXXXXXXXXXXX",
"oooooooooooooooooooo....OOOOOOOOOOOOXXXXXXXXXXXXXXXXXXXXXXXXXXXX",
"ooooooooooooooooooooOOOOOOOOOOOOXXXXXXXXXXXXXXXXXXXXXXXXXXXXXXXX",
"ooooooooooooooooooooOOOOOOOOOOOOXXXXXXXXXXXXXXXXXXXXXXXXXXXXXXXX",
"ooooooooooooooooooooOOOOOOOOOOOOXXXXXXXXXXXXXXXXXXXXXXXXXXXXXXXX",
"ooooooooooooooooooooOOOOOOOOOOOOXXXXXXXXXXXXXXXXXXXXXXXXXXXXXXXX",
"ooooooooooooooooOOOOOOOO    ........XXXXXXXXXXXXXXXXXXXXXXXXXXXX",
"ooooooooooooooooOOOOOOOO    ........XXXXXXXXXXXXXXXXXXXXXXXXXXXX",
"ooooooooooooooooOOOOOOOO    ........XXXXXXXXXXXXXXXXXXXXXXXXXXXX",
"ooooooooooooooooOOOOOOOO    ........XXXXXXXXXXXXXXXXXXXXXXXXXXXX",
"ooooooooooooOOOOOOOO            ........XXXXXXXXXXXXXXXXXXXXXXXX",
"ooooooooooooOOOOOOOO            ........XXXXXXXXXXXXXXXXXXXXXXXX",
"ooooooooooooOOOOOOOO            ........XXXXXXXXXXXXXXXXXXXXXXXX",
"ooooooooooooOOOOOOOO            ........XXXXXXXXXXXXXXXXXXXXXXXX",
"ooooooooOOOOOOOO                    ........XXXXXXXXXXXXXXXXXXXX",
"ooooooooOOOOOOOO                    ........XXXXXXXXXXXXXXXXXXXX",
"ooooooooOOOOOOOO                    ........XXXXXXXXXXXXXXXXXXXX",
"ooooooooOOOOOOOO                    ........XXXXXXXXXXXXXXXXXXXX",
"ooooOOOOOOOO                            ........XXXXXXXXXXXXXXXX",
"ooooOOOOOOOO                            ........XXXXXXXXXXXXXXXX",
"ooooOOOOOOOO                            ........XXXXXXXXXXXXXXXX",
"ooooOOOOOOOO                            ........XXXXXXXXXXXXXXXX",
"OOOOOOOO                                    ........XXXXXXXXXXXX",
"OOOOOOOO                                    ........XXXXXXXXXXXX",
"OOOOOOOO                                    ........XXXXXXXXXXXX",
"OOOOOOOO                                    ........XXXXXXXXXXXX",
"OOOO                                            ........XXXXXXXX",
"OOOO                                            ........XXXXXXXX",
"OOOO                                            ........XXXXXXXX",
"OOOO                                            ........XXXXXXXX",
"                                                    ........XXXX",
"                                                    ........XXXX",
"                                                    ........XXXX",
"                                                    ........XXXX",
"                                                        ........",
"                                                        ........",
"                                                        ........",
"                                                        ........"
};
